<mxfile host="app.diagrams.net" modified="2024-05-21T14:06:52.520Z" agent="Mozilla/5.0 (Windows NT 10.0; Win64; x64) AppleWebKit/537.36 (KHTML, like Gecko) Chrome/124.0.0.0 Safari/537.36" etag="B8u4z65BtCy-3PjRgVbV" version="24.4.4" type="github">
  <diagram id="2KFCqOQoIdhveJmsqo8c" name="Page-1">
    <mxGraphModel dx="1050" dy="562" grid="1" gridSize="10" guides="1" tooltips="1" connect="1" arrows="1" fold="1" page="1" pageScale="1" pageWidth="850" pageHeight="1100" background="#FFFFFF" math="0" shadow="0">
      <root>
        <mxCell id="0" />
        <mxCell id="2" value="Layer 0" parent="0" />
        <mxCell id="3" value="&lt;div style=&#39;width: 114.333336px;height:auto;word-break: break-word;&#39;&gt;&lt;div align=&quot;center&quot;&gt;&lt;span style=&quot;font-size:12px;font-family:Arial; line-height: 0;&quot;&gt;&lt;span style=&quot; line-height: normal;&quot;&gt;Role&lt;/span&gt;&lt;/span&gt;&lt;/div&gt;&lt;/div&gt;" style="shape=rect;shadow=0;strokeWidth=2;fillColor=#f9cb9c;strokeColor=#000000;opacity=100.0;html=1;nl2Br=0;verticalAlign=middle;align=center;spacingLeft=1.3333334;spacingRight=0;whiteSpace=wrap;gliffyId=2960;" parent="2" vertex="1">
          <mxGeometry x="785" y="180" width="120" height="60" as="geometry" />
        </mxCell>
        <mxCell id="4" value="&lt;div style=&#39;width: 114.333336px;height:auto;word-break: break-word;&#39;&gt;&lt;div align=&quot;center&quot;&gt;&lt;span style=&quot;font-size:12px;font-family:Arial; line-height: 0;&quot;&gt;&lt;span style=&quot; line-height: normal;&quot;&gt;Owner&lt;/span&gt;&lt;/span&gt;&lt;/div&gt;&lt;/div&gt;" style="shape=rect;shadow=0;strokeWidth=2;fillColor=#f9cb9c;strokeColor=#000000;opacity=100.0;html=1;nl2Br=0;verticalAlign=middle;align=center;spacingLeft=1.3333334;spacingRight=0;whiteSpace=wrap;gliffyId=2979;" parent="2" vertex="1">
          <mxGeometry x="635" y="20" width="120" height="60" as="geometry" />
        </mxCell>
        <mxCell id="5" value="&lt;div style=&#39;width: 114.333336px;height:auto;word-break: break-word;&#39;&gt;&lt;div align=&quot;center&quot;&gt;&lt;span style=&quot;font-size:12px;font-family:Arial; line-height: 0;&quot;&gt;&lt;span style=&quot; line-height: normal;&quot;&gt;Contact&lt;/span&gt;&lt;/span&gt;&lt;/div&gt;&lt;/div&gt;" style="shape=rect;shadow=0;strokeWidth=2;fillColor=#f9cb9c;strokeColor=#000000;opacity=100.0;html=1;nl2Br=0;verticalAlign=middle;align=center;spacingLeft=1.3333334;spacingRight=0;whiteSpace=wrap;gliffyId=2981;" parent="2" vertex="1">
          <mxGeometry x="785" y="20" width="120" height="60" as="geometry" />
        </mxCell>
        <mxCell id="6" value="&lt;div style=&#39;width: 114.333336px;height:auto;word-break: break-word;&#39;&gt;&lt;div align=&quot;center&quot;&gt;&lt;span style=&quot;font-size:12px;font-family:Arial; line-height: 0;&quot;&gt;&lt;span style=&quot; line-height: normal;&quot;&gt;Maintainer&lt;/span&gt;&lt;/span&gt;&lt;/div&gt;&lt;/div&gt;" style="shape=rect;shadow=0;strokeWidth=2;fillColor=#f9cb9c;strokeColor=#000000;opacity=100.0;html=1;nl2Br=0;verticalAlign=middle;align=center;spacingLeft=1.3333334;spacingRight=0;whiteSpace=wrap;gliffyId=2983;" parent="2" vertex="1">
          <mxGeometry x="935" y="20" width="120" height="60" as="geometry" />
        </mxCell>
        <mxCell id="7" value="&lt;div style=&#39;width: 114.333336px;height:auto;word-break: break-word;&#39;&gt;&lt;div align=&quot;center&quot;&gt;&lt;span style=&quot;font-size:12px;font-family:Arial; line-height: 0;&quot;&gt;&lt;span style=&quot; line-height: normal;&quot;&gt;Agent In Role&lt;/span&gt;&lt;/span&gt;&lt;/div&gt;&lt;/div&gt;" style="shape=rect;shadow=0;strokeWidth=2;fillColor=#f9cb9c;strokeColor=#000000;opacity=100.0;html=1;nl2Br=0;verticalAlign=middle;align=center;spacingLeft=1.3333334;spacingRight=0;whiteSpace=wrap;gliffyId=2985;" parent="2" vertex="1">
          <mxGeometry x="785" y="330" width="120" height="60" as="geometry" />
        </mxCell>
        <mxCell id="8" value="&lt;div style=&#39;width: 114.333336px;height:auto;word-break: break-word;&#39;&gt;&lt;div align=&quot;center&quot;&gt;&lt;span style=&quot;font-size:12px;font-family:Arial; line-height: 0;&quot;&gt;&lt;span style=&quot; line-height: normal;&quot;&gt;Agent&lt;/span&gt;&lt;/span&gt;&lt;/div&gt;&lt;/div&gt;" style="shape=rect;shadow=0;strokeWidth=2;fillColor=#f9cb9c;strokeColor=#000000;opacity=100.0;html=1;nl2Br=0;verticalAlign=middle;align=center;spacingLeft=1.3333334;spacingRight=0;whiteSpace=wrap;gliffyId=2987;" parent="2" vertex="1">
          <mxGeometry x="265" y="330" width="120" height="60" as="geometry" />
        </mxCell>
        <mxCell id="9" value="&lt;div style=&#39;width: 114.333336px;height:auto;word-break: break-word;&#39;&gt;&lt;div align=&quot;center&quot;&gt;&lt;span style=&quot;font-size:12px;font-family:Arial; line-height: 0;&quot;&gt;&lt;span style=&quot; line-height: normal;&quot;&gt;Organisation&lt;/span&gt;&lt;/span&gt;&lt;/div&gt;&lt;/div&gt;" style="shape=rect;shadow=0;strokeWidth=2;fillColor=#f9cb9c;strokeColor=#000000;opacity=100.0;html=1;nl2Br=0;verticalAlign=middle;align=center;spacingLeft=1.3333334;spacingRight=0;whiteSpace=wrap;gliffyId=2989;" parent="2" vertex="1">
          <mxGeometry x="105" y="180" width="120" height="60" as="geometry" />
        </mxCell>
        <mxCell id="10" value="&lt;div style=&#39;width: 114.333336px;height:auto;word-break: break-word;&#39;&gt;&lt;div align=&quot;center&quot;&gt;&lt;span style=&quot;font-size:12px;font-family:Arial; line-height: 0;&quot;&gt;&lt;span style=&quot; line-height: normal;&quot;&gt;Individual&lt;/span&gt;&lt;/span&gt;&lt;/div&gt;&lt;/div&gt;" style="shape=rect;shadow=0;strokeWidth=2;fillColor=#f9cb9c;strokeColor=#000000;opacity=100.0;html=1;nl2Br=0;verticalAlign=middle;align=center;spacingLeft=1.3333334;spacingRight=0;whiteSpace=wrap;gliffyId=2991;" parent="2" vertex="1">
          <mxGeometry x="265" y="180" width="120" height="60" as="geometry" />
        </mxCell>
        <mxCell id="11" value="&lt;div style=&#39;width: 114.333336px;height:auto;word-break: break-word;&#39;&gt;&lt;div align=&quot;center&quot;&gt;&lt;span style=&quot;font-size:12px;font-family:Arial; line-height: 0;&quot;&gt;&lt;span style=&quot; line-height: normal;&quot;&gt;Software Agent&lt;/span&gt;&lt;/span&gt;&lt;/div&gt;&lt;/div&gt;" style="shape=rect;shadow=0;strokeWidth=2;fillColor=#f9cb9c;strokeColor=#000000;opacity=100.0;html=1;nl2Br=0;verticalAlign=middle;align=center;spacingLeft=1.3333334;spacingRight=0;whiteSpace=wrap;gliffyId=3111;" parent="2" vertex="1">
          <mxGeometry x="425" y="180" width="120" height="60" as="geometry" />
        </mxCell>
        <mxCell id="12" value="&lt;div style=&#39;width: 114.333336px;height:auto;word-break: break-word;&#39;&gt;&lt;div align=&quot;center&quot;&gt;&lt;span style=&quot;font-size:12px;font-family:Arial; line-height: 0;&quot;&gt;&lt;span style=&quot; line-height: normal;&quot;&gt;Change Event&lt;/span&gt;&lt;/span&gt;&lt;/div&gt;&lt;/div&gt;" style="shape=rect;shadow=0;strokeWidth=2;fillColor=#f9cb9c;strokeColor=#000000;opacity=100.0;html=1;nl2Br=0;verticalAlign=middle;align=center;spacingLeft=1.3333334;spacingRight=0;whiteSpace=wrap;gliffyId=2993;" parent="2" vertex="1">
          <mxGeometry x="505" y="520" width="120" height="60" as="geometry" />
        </mxCell>
        <mxCell id="13" value="&lt;div style=&#39;width: 114.333336px;height:auto;word-break: break-word;&#39;&gt;&lt;div align=&quot;center&quot;&gt;&lt;span style=&quot;font-size:12px;font-family:Arial; line-height: 0;&quot;&gt;&lt;span style=&quot; line-height: normal;&quot;&gt;Identifiable Artefact&lt;/span&gt;&lt;/span&gt;&lt;/div&gt;&lt;/div&gt;" style="shape=rect;shadow=0;strokeWidth=2;fillColor=#f9cb9c;strokeColor=#000000;opacity=100.0;html=1;nl2Br=0;verticalAlign=middle;align=center;spacingLeft=1.3333334;spacingRight=0;whiteSpace=wrap;gliffyId=2997;" parent="2" vertex="1">
          <mxGeometry x="505" y="680" width="120" height="60" as="geometry" />
        </mxCell>
        <mxCell id="14" value="&lt;div style=&#39;width: 114.333336px;height:auto;word-break: break-word;&#39;&gt;&lt;div align=&quot;center&quot;&gt;&lt;span style=&quot;font-size:12px;font-family:Arial; line-height: 0;&quot;&gt;&lt;span style=&quot; line-height: normal;&quot;&gt;Administrative Details&lt;/span&gt;&lt;/span&gt;&lt;/div&gt;&lt;/div&gt;" style="shape=rect;shadow=0;strokeWidth=2;fillColor=#f9cb9c;strokeColor=#000000;opacity=100.0;html=1;nl2Br=0;verticalAlign=middle;align=center;spacingLeft=1.3333334;spacingRight=0;whiteSpace=wrap;gliffyId=2999;" parent="2" vertex="1">
          <mxGeometry x="905" y="680" width="120" height="60" as="geometry" />
        </mxCell>
        <mxCell id="15" value="&lt;div style=&#39;width: 114.333336px;height:auto;word-break: break-word;&#39;&gt;&lt;div align=&quot;center&quot;&gt;&lt;span style=&quot;font-size:12px;font-family:Arial; line-height: 0;&quot;&gt;&lt;span style=&quot; line-height: normal;&quot;&gt;Change Definition&lt;/span&gt;&lt;/span&gt;&lt;/div&gt;&lt;/div&gt;" style="shape=rect;shadow=0;strokeWidth=2;fillColor=#cfe2f3;strokeColor=#000000;opacity=100.0;html=1;nl2Br=0;verticalAlign=middle;align=center;spacingLeft=1.3333334;spacingRight=0;whiteSpace=wrap;gliffyId=3053;" parent="2" vertex="1">
          <mxGeometry x="185" y="680" width="120" height="60" as="geometry" />
        </mxCell>
        <mxCell id="16" value="&lt;div style=&#39;width: 114.333336px;height:auto;word-break: break-word;&#39;&gt;&lt;div align=&quot;center&quot;&gt;&lt;span style=&quot;font-size:12px;font-family:Arial; line-height: 0;&quot;&gt;&lt;span style=&quot; line-height: normal;&quot;&gt;Process Step&lt;/span&gt;&lt;/span&gt;&lt;/div&gt;&lt;/div&gt;" style="shape=rect;shadow=0;strokeWidth=2;fillColor=#cfe2f3;strokeColor=#000000;opacity=100.0;html=1;nl2Br=0;verticalAlign=middle;align=center;spacingLeft=1.3333334;spacingRight=0;whiteSpace=wrap;gliffyId=3104;" parent="2" vertex="1">
          <mxGeometry x="185" y="520" width="120" height="60" as="geometry" />
        </mxCell>
        <mxCell id="17" value="&lt;div style=&#39;width: 114.333336px;height:auto;word-break: break-word;&#39;&gt;&lt;div align=&quot;center&quot;&gt;&lt;span style=&quot;font-size:12px;font-family:Arial; line-height: 0;&quot;&gt;&lt;span style=&quot; line-height: normal;&quot;&gt;Core Output&lt;/span&gt;&lt;/span&gt;&lt;/div&gt;&lt;/div&gt;" style="shape=rect;shadow=0;strokeWidth=2;fillColor=#cfe2f3;strokeColor=#000000;opacity=100.0;html=1;nl2Br=0;verticalAlign=middle;align=center;spacingLeft=1.3333334;spacingRight=0;whiteSpace=wrap;gliffyId=3055;" parent="2" vertex="1">
          <mxGeometry x="505" y="870" width="120" height="60" as="geometry" />
        </mxCell>
        <mxCell id="18" value="&lt;div style=&#39;width: 114.333336px;height:auto;word-break: break-word;&#39;&gt;&lt;div align=&quot;center&quot;&gt;&lt;span style=&quot;font-size:12px;font-family:Arial; line-height: 0;&quot;&gt;&lt;span style=&quot; line-height: normal;&quot;&gt;Referential Metadata Attribute&lt;/span&gt;&lt;/span&gt;&lt;/div&gt;&lt;/div&gt;" style="shape=rect;shadow=0;strokeWidth=2;fillColor=#fff2cc;strokeColor=#000000;opacity=100.0;html=1;nl2Br=0;verticalAlign=middle;align=center;spacingLeft=1.3333334;spacingRight=0;whiteSpace=wrap;gliffyId=3093;" parent="2" vertex="1">
          <mxGeometry x="345" y="870" width="120" height="60" as="geometry" />
        </mxCell>
        <mxCell id="19" value="&lt;div style=&#39;width: 114.333336px;height:auto;word-break: break-word;&#39;&gt;&lt;div align=&quot;center&quot;&gt;&lt;span style=&quot;font-size:12px;font-family:Arial; line-height: 0;&quot;&gt;&lt;span style=&quot; line-height: normal;&quot;&gt;Referential Metadata Subject Item&lt;/span&gt;&lt;/span&gt;&lt;/div&gt;&lt;/div&gt;" style="shape=rect;shadow=0;strokeWidth=2;fillColor=#fff2cc;strokeColor=#000000;opacity=100.0;html=1;nl2Br=0;verticalAlign=middle;align=center;spacingLeft=1.3333334;spacingRight=0;whiteSpace=wrap;gliffyId=3096;" parent="2" vertex="1">
          <mxGeometry x="185" y="870" width="120" height="60" as="geometry" />
        </mxCell>
        <mxCell id="20" value="&lt;div style=&#39;width: 114.333336px;height:auto;word-break: break-word;&#39;&gt;&lt;div align=&quot;center&quot;&gt;&lt;span style=&quot;font-size:12px;font-family:Arial; line-height: 0;&quot;&gt;&lt;span style=&quot; line-height: normal;&quot;&gt;Core Input&lt;/span&gt;&lt;/span&gt;&lt;/div&gt;&lt;/div&gt;" style="shape=rect;shadow=0;strokeWidth=2;fillColor=#cfe2f3;strokeColor=#000000;opacity=100.0;html=1;nl2Br=0;verticalAlign=middle;align=center;spacingLeft=1.3333334;spacingRight=0;whiteSpace=wrap;gliffyId=3057;" parent="2" vertex="1">
          <mxGeometry x="665" y="870" width="120" height="60" as="geometry" />
        </mxCell>
        <mxCell id="21" value="&lt;div style=&#39;width: 114.333336px;height:auto;word-break: break-word;&#39;&gt;&lt;div align=&quot;center&quot;&gt;&lt;span style=&quot;font-size:12px;font-family:Arial; line-height: 0;&quot;&gt;&lt;span style=&quot; line-height: normal;&quot;&gt;Process Support Input&lt;/span&gt;&lt;/span&gt;&lt;/div&gt;&lt;/div&gt;" style="shape=rect;shadow=0;strokeWidth=2;fillColor=#cfe2f3;strokeColor=#000000;opacity=100.0;html=1;nl2Br=0;verticalAlign=middle;align=center;spacingLeft=1.3333334;spacingRight=0;whiteSpace=wrap;gliffyId=3059;" parent="2" vertex="1">
          <mxGeometry x="825" y="870" width="120" height="60" as="geometry" />
        </mxCell>
        <mxCell id="22" value="&lt;div style=&#39;width: 114.333336px;height:auto;word-break: break-word;&#39;&gt;&lt;div align=&quot;center&quot;&gt;&lt;span style=&quot;font-size:12px;font-family:Arial; line-height: 0;&quot;&gt;&lt;span style=&quot; line-height: normal;&quot;&gt;Information Consumer&lt;/span&gt;&lt;/span&gt;&lt;/div&gt;&lt;/div&gt;" style="shape=rect;shadow=0;strokeWidth=2;fillColor=#f4cccc;strokeColor=#000000;opacity=100.0;html=1;nl2Br=0;verticalAlign=middle;align=center;spacingLeft=1.3333334;spacingRight=0;whiteSpace=wrap;gliffyId=3071;" parent="2" vertex="1">
          <mxGeometry x="1025" y="120" width="120" height="60" as="geometry" />
        </mxCell>
        <mxCell id="23" value="&lt;div style=&#39;width: 114.333336px;height:auto;word-break: break-word;&#39;&gt;&lt;div align=&quot;center&quot;&gt;&lt;span style=&quot;font-size:12px;font-family:Arial; line-height: 0;&quot;&gt;&lt;span style=&quot; line-height: normal;&quot;&gt;Information Provider&lt;/span&gt;&lt;/span&gt;&lt;/div&gt;&lt;/div&gt;" style="shape=rect;shadow=0;strokeWidth=2;fillColor=#f4cccc;strokeColor=#000000;opacity=100.0;html=1;nl2Br=0;verticalAlign=middle;align=center;spacingLeft=1.3333334;spacingRight=0;whiteSpace=wrap;gliffyId=3073;" parent="2" vertex="1">
          <mxGeometry x="1025" y="240" width="120" height="60" as="geometry" />
        </mxCell>
        <mxCell id="24" style="shape=filledEdge;strokeWidth=2;strokeColor=#000000;fillColor=none;startArrow=none;startFill=0;startSize=6;endArrow=block;endFill=0;endSize=6;rounded=0;gliffyId=3001;exitX=0.5;exitY=1.0;exitPerimeter=0;entryX=0.2928932309150696;entryY=0.0;entryPerimeter=0;" parent="2" source="9" target="8" edge="1">
          <mxGeometry width="77" height="94" relative="1" as="geometry">
            <Array as="points">
              <mxPoint x="165" y="240" />
              <mxPoint x="300.1471862792969" y="330" />
            </Array>
          </mxGeometry>
        </mxCell>
        <mxCell id="25" style="shape=filledEdge;strokeWidth=2;strokeColor=#000000;fillColor=none;startArrow=none;startFill=0;startSize=6;endArrow=block;endFill=0;endSize=6;rounded=0;gliffyId=3004;edgeStyle=orthogonalEdgeStyle;" parent="2" source="10" target="8" edge="1">
          <mxGeometry width="77" height="94" relative="1" as="geometry">
            <Array as="points">
              <mxPoint x="325" y="240" />
              <mxPoint x="325" y="330" />
            </Array>
          </mxGeometry>
        </mxCell>
        <mxCell id="26" style="shape=filledEdge;strokeWidth=2;strokeColor=#000000;fillColor=none;startArrow=none;startFill=0;startSize=6;endArrow=block;endFill=0;endSize=6;rounded=0;gliffyId=3113;exitX=0.5;exitY=1.0;exitPerimeter=0;entryX=0.7071067690849304;entryY=0.0;entryPerimeter=0;" parent="2" source="11" target="8" edge="1">
          <mxGeometry width="77" height="94" relative="1" as="geometry">
            <Array as="points">
              <mxPoint x="485" y="240" />
              <mxPoint x="349.8528137207031" y="330" />
            </Array>
          </mxGeometry>
        </mxCell>
        <mxCell id="27" style="shape=filledEdge;strokeWidth=2;strokeColor=#000000;fillColor=none;startArrow=none;startFill=0;startSize=6;endArrow=block;endFill=0;endSize=6;rounded=0;gliffyId=3005;exitX=0.5;exitY=1.0;exitPerimeter=0;entryX=0.2928932309150696;entryY=0.0;entryPerimeter=0;" parent="2" source="4" target="3" edge="1">
          <mxGeometry width="77" height="94" relative="1" as="geometry">
            <Array as="points">
              <mxPoint x="695" y="80" />
              <mxPoint x="820.1471557617188" y="180" />
            </Array>
          </mxGeometry>
        </mxCell>
        <mxCell id="28" style="shape=filledEdge;strokeWidth=2;strokeColor=#000000;fillColor=none;startArrow=none;startFill=0;startSize=6;endArrow=block;endFill=0;endSize=6;rounded=0;gliffyId=3006;edgeStyle=orthogonalEdgeStyle;" parent="2" source="5" target="3" edge="1">
          <mxGeometry width="77" height="94" relative="1" as="geometry">
            <Array as="points">
              <mxPoint x="845" y="80" />
              <mxPoint x="845" y="180" />
            </Array>
          </mxGeometry>
        </mxCell>
        <mxCell id="29" style="shape=filledEdge;strokeWidth=2;strokeColor=#000000;fillColor=none;startArrow=none;startFill=0;startSize=6;endArrow=block;endFill=0;endSize=6;rounded=0;gliffyId=3007;exitX=0.5;exitY=1.0;exitPerimeter=0;entryX=0.7071067690849304;entryY=0.0;entryPerimeter=0;" parent="2" source="6" target="3" edge="1">
          <mxGeometry width="77" height="94" relative="1" as="geometry">
            <Array as="points">
              <mxPoint x="995" y="80" />
              <mxPoint x="869.8528442382812" y="180" />
            </Array>
          </mxGeometry>
        </mxCell>
        <mxCell id="30" style="shape=filledEdge;strokeWidth=2;strokeColor=#000000;fillColor=none;startArrow=none;startFill=0;startSize=6;endArrow=block;endFill=0;endSize=6;rounded=0;gliffyId=3075;exitX=0.0;exitY=0.5;exitPerimeter=0;entryX=1.0;entryY=0.2928932309150696;entryPerimeter=0;" parent="2" source="22" target="3" edge="1">
          <mxGeometry width="77" height="94" relative="1" as="geometry">
            <Array as="points">
              <mxPoint x="1025" y="150" />
              <mxPoint x="905" y="197.57359313964844" />
            </Array>
          </mxGeometry>
        </mxCell>
        <mxCell id="31" style="shape=filledEdge;strokeWidth=2;strokeColor=#000000;fillColor=none;startArrow=none;startFill=0;startSize=6;endArrow=block;endFill=0;endSize=6;rounded=0;gliffyId=3076;exitX=0.0;exitY=0.5;exitPerimeter=0;entryX=1.0;entryY=0.7071067690849304;entryPerimeter=0;" parent="2" source="23" target="3" edge="1">
          <mxGeometry width="77" height="94" relative="1" as="geometry">
            <Array as="points">
              <mxPoint x="1025" y="270" />
              <mxPoint x="905" y="222.42640686035156" />
            </Array>
          </mxGeometry>
        </mxCell>
        <mxCell id="32" style="shape=filledEdge;strokeWidth=2;strokeColor=#000000;fillColor=none;startArrow=none;startFill=0;startSize=6;endArrow=open;endFill=0;endSize=6;rounded=0;html=1;nl2Br=0;gliffyId=3008;edgeStyle=orthogonalEdgeStyle;" parent="2" source="7" target="3" edge="1">
          <mxGeometry width="4" height="86" relative="1" as="geometry">
            <Array as="points">
              <mxPoint x="845" y="330" />
              <mxPoint x="845" y="240" />
            </Array>
          </mxGeometry>
        </mxCell>
        <mxCell id="33" value="&lt;div style=&#39;width: 29.0125px;height:auto;word-break: break-word;&#39;&gt;&lt;div align=&quot;center&quot;&gt;&lt;span style=&quot;font-size:12px;font-family:Arial; line-height: 0;&quot;&gt;&lt;span style=&quot; line-height: normal;&quot;&gt;0..*&lt;/span&gt;&lt;/span&gt;&lt;/div&gt;&lt;/div&gt;" style="text;html=1;nl2Br=0;points=[];labelBackgroundColor=#FFFFFF;html=1;nl2Br=0;verticalAlign=middle;align=center;spacingLeft=0.0;spacingRight=0;gliffyId=3013;" parent="32" vertex="1">
          <mxGeometry x="-0.7555555555555555" relative="1" as="geometry">
            <mxPoint x="-18" y="-2" as="offset" />
          </mxGeometry>
        </mxCell>
        <mxCell id="34" value="&lt;div style=&#39;width: 17.675px;height:auto;word-break: break-word;&#39;&gt;&lt;div align=&quot;center&quot;&gt;&lt;span style=&quot;font-size:12px;font-family:Arial; line-height: 0;&quot;&gt;&lt;span style=&quot; line-height: normal;&quot;&gt;1&lt;/span&gt;&lt;/span&gt;&lt;/div&gt;&lt;/div&gt;" style="text;html=1;nl2Br=0;points=[];labelBackgroundColor=#FFFFFF;html=1;nl2Br=0;verticalAlign=middle;align=center;spacingLeft=0.0;spacingRight=0;gliffyId=3012;" parent="32" vertex="1">
          <mxGeometry x="0.7333333333333334" relative="1" as="geometry">
            <mxPoint x="-14" y="6" as="offset" />
          </mxGeometry>
        </mxCell>
        <mxCell id="35" value="&lt;div style=&#39;width: 38.35px;height:auto;word-break: break-word;&#39;&gt;&lt;div align=&quot;center&quot;&gt;&lt;span style=&quot;font-size:12px;font-family:Arial; line-height: 0;&quot;&gt;&lt;span style=&quot; line-height: normal;&quot;&gt;fulfils&lt;/span&gt;&lt;/span&gt;&lt;/div&gt;&lt;/div&gt;" style="text;html=1;nl2Br=0;points=[];labelBackgroundColor=#FFFFFF;html=1;nl2Br=0;verticalAlign=middle;align=center;spacingLeft=0.0;spacingRight=0;gliffyId=3011;" parent="32" vertex="1">
          <mxGeometry relative="1" as="geometry">
            <mxPoint as="offset" />
          </mxGeometry>
        </mxCell>
        <mxCell id="36" style="shape=filledEdge;strokeWidth=2;strokeColor=#000000;fillColor=none;startArrow=none;startFill=0;startSize=6;endArrow=open;endFill=0;endSize=6;rounded=0;html=1;nl2Br=0;gliffyId=3014;edgeStyle=orthogonalEdgeStyle;entryX=1;entryY=0.5;entryDx=0;entryDy=0;" parent="2" source="7" target="8" edge="1">
          <mxGeometry width="4" height="86" relative="1" as="geometry">
            <mxPoint x="385" y="360" as="targetPoint" />
            <Array as="points" />
          </mxGeometry>
        </mxCell>
        <mxCell id="37" value="&lt;div style=&#39;width: 29.0125px;height:auto;word-break: break-word;&#39;&gt;&lt;div align=&quot;center&quot;&gt;&lt;span style=&quot;font-size:12px;font-family:Arial; line-height: 0;&quot;&gt;&lt;span style=&quot; line-height: normal;&quot;&gt;0..*&lt;/span&gt;&lt;/span&gt;&lt;/div&gt;&lt;/div&gt;" style="text;html=1;nl2Br=0;points=[];labelBackgroundColor=#FFFFFF;html=1;nl2Br=0;verticalAlign=middle;align=center;spacingLeft=0.0;spacingRight=0;gliffyId=3015;" parent="36" vertex="1">
          <mxGeometry x="-0.895" relative="1" as="geometry">
            <mxPoint y="-20" as="offset" />
          </mxGeometry>
        </mxCell>
        <mxCell id="38" value="&lt;div style=&#39;width: 17.675px;height:auto;word-break: break-word;&#39;&gt;&lt;div align=&quot;center&quot;&gt;&lt;span style=&quot;font-size:12px;font-family:Arial; line-height: 0;&quot;&gt;&lt;span style=&quot; line-height: normal;&quot;&gt;1&lt;/span&gt;&lt;/span&gt;&lt;/div&gt;&lt;/div&gt;" style="text;html=1;nl2Br=0;points=[];labelBackgroundColor=#FFFFFF;html=1;nl2Br=0;verticalAlign=middle;align=center;spacingLeft=0.0;spacingRight=0;gliffyId=3016;" parent="36" vertex="1">
          <mxGeometry x="0.8799999999999999" relative="1" as="geometry">
            <mxPoint y="-20" as="offset" />
          </mxGeometry>
        </mxCell>
        <mxCell id="39" style="shape=filledEdge;strokeWidth=2;strokeColor=#000000;fillColor=none;startArrow=none;startFill=0;startSize=6;endArrow=open;endFill=0;endSize=6;rounded=0;html=1;nl2Br=0;gliffyId=3024;edgeStyle=orthogonalEdgeStyle;" parent="2" source="12" target="7" edge="1">
          <mxGeometry width="4" height="86" relative="1" as="geometry">
            <Array as="points">
              <mxPoint x="625" y="550" />
              <mxPoint x="820.147216796875" y="550" />
              <mxPoint x="820.147216796875" y="390" />
            </Array>
          </mxGeometry>
        </mxCell>
        <mxCell id="40" value="&lt;div style=&#39;width: 86.375px;height:auto;word-break: break-word;&#39;&gt;&lt;div align=&quot;center&quot;&gt;&lt;span style=&quot;font-size:12px;font-family:Arial; line-height: 0;&quot;&gt;&lt;span style=&quot; line-height: normal;&quot;&gt;is attributed to&lt;/span&gt;&lt;/span&gt;&lt;/div&gt;&lt;/div&gt;" style="text;html=1;nl2Br=0;points=[];labelBackgroundColor=#FFFFFF;html=1;nl2Br=0;verticalAlign=middle;align=center;spacingLeft=0.0;spacingRight=0;gliffyId=3027;" parent="39" vertex="1">
          <mxGeometry x="-0.24538329354635535" relative="1" as="geometry">
            <mxPoint as="offset" />
          </mxGeometry>
        </mxCell>
        <mxCell id="41" value="&lt;div style=&#39;width: 29.0125px;height:auto;word-break: break-word;&#39;&gt;&lt;div align=&quot;center&quot;&gt;&lt;span style=&quot;font-size:12px;font-family:Arial;color:rgb(0, 0, 0); line-height: 0;&quot;&gt;&lt;span style=&quot; line-height: normal;&quot;&gt;0..*&lt;/span&gt;&lt;/span&gt;&lt;/div&gt;&lt;/div&gt;" style="text;html=1;nl2Br=0;points=[];labelBackgroundColor=#FFFFFF;html=1;nl2Br=0;verticalAlign=middle;align=center;spacingLeft=0.0;spacingRight=0;gliffyId=3025;" parent="39" vertex="1">
          <mxGeometry x="-0.864844768993377" relative="1" as="geometry">
            <mxPoint y="-20" as="offset" />
          </mxGeometry>
        </mxCell>
        <mxCell id="42" value="&lt;div style=&#39;width: 29.0125px;height:auto;word-break: break-word;&#39;&gt;&lt;div align=&quot;center&quot;&gt;&lt;span style=&quot;font-size:12px;font-family:Arial;color:rgb(0, 0, 0); line-height: 0;&quot;&gt;&lt;span style=&quot; line-height: normal;&quot;&gt;0..*&lt;/span&gt;&lt;/span&gt;&lt;/div&gt;&lt;/div&gt;" style="text;html=1;nl2Br=0;points=[];labelBackgroundColor=#FFFFFF;html=1;nl2Br=0;verticalAlign=middle;align=center;spacingLeft=0.0;spacingRight=0;gliffyId=3026;" parent="39" vertex="1">
          <mxGeometry x="0.9034361700099396" relative="1" as="geometry">
            <mxPoint x="-22" y="-6" as="offset" />
          </mxGeometry>
        </mxCell>
        <mxCell id="43" style="shape=filledEdge;strokeWidth=2;strokeColor=#000000;fillColor=none;startArrow=none;startFill=0;startSize=6;endArrow=open;endFill=0;endSize=6;rounded=0;html=1;nl2Br=0;gliffyId=3028;edgeStyle=orthogonalEdgeStyle;" parent="2" source="13" target="7" edge="1">
          <mxGeometry width="4" height="86" relative="1" as="geometry">
            <Array as="points">
              <mxPoint x="625" y="697.5736083984375" />
              <mxPoint x="869.852783203125" y="697.5736083984375" />
              <mxPoint x="869.852783203125" y="390" />
            </Array>
          </mxGeometry>
        </mxCell>
        <mxCell id="44" value="&lt;div style=&#39;width: 101.05px;height:auto;word-break: break-word;&#39;&gt;&lt;div align=&quot;center&quot;&gt;&lt;span style=&quot;font-size:12px;text-decoration:none;font-family:Arial; line-height: 0;&quot;&gt;&lt;span style=&quot;text-decoration:none; line-height: normal;&quot;&gt;has active role in&lt;/span&gt;&lt;/span&gt;&lt;/div&gt;&lt;/div&gt;" style="text;html=1;nl2Br=0;points=[];labelBackgroundColor=#FFFFFF;html=1;nl2Br=0;verticalAlign=middle;align=center;spacingLeft=0.0;spacingRight=0;gliffyId=1de295b3-596b-411c-aa33-2c8795e6bf5d;" parent="43" vertex="1">
          <mxGeometry x="0.2961002426644441" relative="1" as="geometry">
            <mxPoint as="offset" />
          </mxGeometry>
        </mxCell>
        <mxCell id="45" value="&lt;div style=&#39;width: 29.0125px;height:auto;word-break: break-word;&#39;&gt;&lt;div align=&quot;center&quot;&gt;&lt;span style=&quot;font-size:12px;font-family:Arial; line-height: 0;&quot;&gt;&lt;span style=&quot; line-height: normal;&quot;&gt;1..*&lt;/span&gt;&lt;/span&gt;&lt;/div&gt;&lt;/div&gt;" style="text;html=1;nl2Br=0;points=[];labelBackgroundColor=#FFFFFF;html=1;nl2Br=0;verticalAlign=middle;align=center;spacingLeft=0.0;spacingRight=0;gliffyId=3029;" parent="43" vertex="1">
          <mxGeometry x="-0.8950086395607014" relative="1" as="geometry">
            <mxPoint y="-20" as="offset" />
          </mxGeometry>
        </mxCell>
        <mxCell id="46" value="&lt;div style=&#39;width: 29.0125px;height:auto;word-break: break-word;&#39;&gt;&lt;div align=&quot;center&quot;&gt;&lt;span style=&quot;font-size:12px;font-family:Arial; line-height: 0;&quot;&gt;&lt;span style=&quot; line-height: normal;&quot;&gt;0..*&lt;/span&gt;&lt;/span&gt;&lt;/div&gt;&lt;/div&gt;" style="text;html=1;nl2Br=0;points=[];labelBackgroundColor=#FFFFFF;html=1;nl2Br=0;verticalAlign=middle;align=center;spacingLeft=0.0;spacingRight=0;gliffyId=3030;" parent="43" vertex="1">
          <mxGeometry x="0.9369095805180938" relative="1" as="geometry">
            <mxPoint x="17" as="offset" />
          </mxGeometry>
        </mxCell>
        <mxCell id="47" style="shape=filledEdge;strokeWidth=2;strokeColor=#000000;fillColor=none;startArrow=none;startFill=0;startSize=6;endArrow=open;endFill=0;endSize=6;rounded=0;html=1;nl2Br=0;gliffyId=3041;edgeStyle=orthogonalEdgeStyle;" parent="2" source="12" target="13" edge="1">
          <mxGeometry width="4" height="86" relative="1" as="geometry">
            <Array as="points">
              <mxPoint x="565" y="580" />
              <mxPoint x="565" y="680" />
            </Array>
          </mxGeometry>
        </mxCell>
        <mxCell id="48" value="&lt;div style=&#39;width: 41.6875px;height:auto;word-break: break-word;&#39;&gt;&lt;div align=&quot;center&quot;&gt;&lt;span style=&quot;font-size:12px;font-family:Arial; line-height: 0;&quot;&gt;&lt;span style=&quot; line-height: normal;&quot;&gt;target&lt;/span&gt;&lt;/span&gt;&lt;/div&gt;&lt;/div&gt;" style="text;html=1;nl2Br=0;points=[];labelBackgroundColor=#FFFFFF;html=1;nl2Br=0;verticalAlign=middle;align=center;spacingLeft=0.0;spacingRight=0;gliffyId=3048;" parent="47" vertex="1">
          <mxGeometry x="-0.26" relative="1" as="geometry">
            <mxPoint as="offset" />
          </mxGeometry>
        </mxCell>
        <mxCell id="49" value="&lt;div style=&#39;width: 17.675px;height:auto;word-break: break-word;&#39;&gt;&lt;div align=&quot;center&quot;&gt;&lt;span style=&quot;font-size:12px;font-family:Arial; line-height: 0;&quot;&gt;&lt;span style=&quot; line-height: normal;&quot;&gt;1&lt;/span&gt;&lt;/span&gt;&lt;/div&gt;&lt;/div&gt;" style="text;html=1;nl2Br=0;points=[];labelBackgroundColor=#FFFFFF;html=1;nl2Br=0;verticalAlign=middle;align=center;spacingLeft=0.0;spacingRight=0;gliffyId=3042;" parent="47" vertex="1">
          <mxGeometry x="-0.7" relative="1" as="geometry">
            <mxPoint x="-12" y="-6" as="offset" />
          </mxGeometry>
        </mxCell>
        <mxCell id="50" value="&lt;div style=&#39;width: 29.0125px;height:auto;word-break: break-word;&#39;&gt;&lt;div align=&quot;center&quot;&gt;&lt;span style=&quot;font-size:12px;font-family:Arial; line-height: 0;&quot;&gt;&lt;span style=&quot; line-height: normal;&quot;&gt;1..*&lt;/span&gt;&lt;/span&gt;&lt;/div&gt;&lt;/div&gt;" style="text;html=1;nl2Br=0;points=[];labelBackgroundColor=#FFFFFF;html=1;nl2Br=0;verticalAlign=middle;align=center;spacingLeft=0.0;spacingRight=0;gliffyId=3043;" parent="47" vertex="1">
          <mxGeometry x="0.5" relative="1" as="geometry">
            <mxPoint x="-17" y="6" as="offset" />
          </mxGeometry>
        </mxCell>
        <mxCell id="51" style="shape=filledEdge;strokeWidth=2;strokeColor=#000000;fillColor=none;startArrow=none;startFill=0;startSize=6;endArrow=open;endFill=0;endSize=6;rounded=0;html=1;nl2Br=0;gliffyId=3077;edgeStyle=orthogonalEdgeStyle;" parent="2" source="15" target="13" edge="1">
          <mxGeometry width="4" height="86" relative="1" as="geometry">
            <Array as="points">
              <mxPoint x="305" y="697.5736083984375" />
              <mxPoint x="505" y="697.5736083984375" />
            </Array>
          </mxGeometry>
        </mxCell>
        <mxCell id="52" value="&lt;div style=&#39;width: 59.025px;height:auto;word-break: break-word;&#39;&gt;&lt;div align=&quot;center&quot;&gt;&lt;span style=&quot;font-size:12px;font-family:Arial; line-height: 0;&quot;&gt;&lt;span style=&quot; line-height: normal;&quot;&gt;results in&lt;/span&gt;&lt;/span&gt;&lt;/div&gt;&lt;/div&gt;" style="text;html=1;nl2Br=0;points=[];labelBackgroundColor=#FFFFFF;html=1;nl2Br=0;verticalAlign=middle;align=center;spacingLeft=0.0;spacingRight=0;gliffyId=3078;" parent="51" vertex="1">
          <mxGeometry relative="1" as="geometry">
            <mxPoint as="offset" />
          </mxGeometry>
        </mxCell>
        <mxCell id="53" value="&lt;div style=&#39;width: 29.0125px;height:auto;word-break: break-word;&#39;&gt;&lt;div align=&quot;center&quot;&gt;&lt;span style=&quot;font-size:12px;font-family:Arial;color:rgb(0, 0, 0); line-height: 0;&quot;&gt;&lt;span style=&quot; line-height: normal;&quot;&gt;0..*&lt;/span&gt;&lt;/span&gt;&lt;/div&gt;&lt;/div&gt;" style="text;html=1;nl2Br=0;points=[];labelBackgroundColor=#FFFFFF;html=1;nl2Br=0;verticalAlign=middle;align=center;spacingLeft=0.0;spacingRight=0;gliffyId=3079;" parent="51" vertex="1">
          <mxGeometry x="-0.78" relative="1" as="geometry">
            <mxPoint y="9" as="offset" />
          </mxGeometry>
        </mxCell>
        <mxCell id="54" value="&lt;div style=&#39;width: 29.0125px;height:auto;word-break: break-word;&#39;&gt;&lt;div align=&quot;center&quot;&gt;&lt;span style=&quot;font-size:12px;font-family:Arial; line-height: 0;&quot;&gt;&lt;span style=&quot; line-height: normal;&quot;&gt;0..*&lt;/span&gt;&lt;/span&gt;&lt;/div&gt;&lt;/div&gt;" style="text;html=1;nl2Br=0;points=[];labelBackgroundColor=#FFFFFF;html=1;nl2Br=0;verticalAlign=middle;align=center;spacingLeft=0.0;spacingRight=0;gliffyId=3080;" parent="51" vertex="1">
          <mxGeometry x="0.6699999999999999" relative="1" as="geometry">
            <mxPoint y="9" as="offset" />
          </mxGeometry>
        </mxCell>
        <mxCell id="55" style="shape=filledEdge;strokeWidth=2;strokeColor=#000000;fillColor=none;startArrow=none;startFill=0;startSize=6;endArrow=open;endFill=0;endSize=6;rounded=0;html=1;nl2Br=0;gliffyId=3081;edgeStyle=orthogonalEdgeStyle;entryX=0;entryY=0.25;entryDx=0;entryDy=0;exitX=1;exitY=0.25;exitDx=0;exitDy=0;" parent="2" source="15" target="13" edge="1">
          <mxGeometry width="4" height="86" relative="1" as="geometry">
            <Array as="points" />
            <mxPoint x="305" y="689" as="sourcePoint" />
            <mxPoint x="505" y="689" as="targetPoint" />
          </mxGeometry>
        </mxCell>
        <mxCell id="56" value="&lt;div style=&#39;width: 73.725px;height:auto;word-break: break-word;&#39;&gt;&lt;div align=&quot;center&quot;&gt;&lt;span style=&quot;font-size:12px;font-family:Arial; line-height: 0;&quot;&gt;&lt;span style=&quot; line-height: normal;&quot;&gt;based upon&lt;/span&gt;&lt;/span&gt;&lt;/div&gt;&lt;/div&gt;" style="text;html=1;nl2Br=0;points=[];labelBackgroundColor=#FFFFFF;html=1;nl2Br=0;verticalAlign=middle;align=center;spacingLeft=0.0;spacingRight=0;gliffyId=3082;" parent="55" vertex="1">
          <mxGeometry relative="1" as="geometry">
            <mxPoint as="offset" />
          </mxGeometry>
        </mxCell>
        <mxCell id="57" value="&lt;div style=&#39;width: 29.0125px;height:auto;word-break: break-word;&#39;&gt;&lt;div align=&quot;center&quot;&gt;&lt;span style=&quot;font-size:12px;font-family:Arial;color:rgb(0, 0, 0); line-height: 0;&quot;&gt;&lt;span style=&quot; line-height: normal;&quot;&gt;0..*&lt;/span&gt;&lt;/span&gt;&lt;/div&gt;&lt;/div&gt;" style="text;html=1;nl2Br=0;points=[];labelBackgroundColor=#FFFFFF;html=1;nl2Br=0;verticalAlign=middle;align=center;spacingLeft=0.0;spacingRight=0;gliffyId=3083;" parent="55" vertex="1">
          <mxGeometry x="-0.78" relative="1" as="geometry">
            <mxPoint y="-10" as="offset" />
          </mxGeometry>
        </mxCell>
        <mxCell id="58" value="&lt;div style=&#39;width: 29.0125px;height:auto;word-break: break-word;&#39;&gt;&lt;div align=&quot;center&quot;&gt;&lt;span style=&quot;font-size:12px;font-family:Arial; line-height: 0;&quot;&gt;&lt;span style=&quot; line-height: normal;&quot;&gt;0..*&lt;/span&gt;&lt;/span&gt;&lt;/div&gt;&lt;/div&gt;" style="text;html=1;nl2Br=0;points=[];labelBackgroundColor=#FFFFFF;html=1;nl2Br=0;verticalAlign=middle;align=center;spacingLeft=0.0;spacingRight=0;gliffyId=3084;" parent="55" vertex="1">
          <mxGeometry x="0.6699999999999999" relative="1" as="geometry">
            <mxPoint y="-10" as="offset" />
          </mxGeometry>
        </mxCell>
        <mxCell id="59" style="shape=filledEdge;strokeWidth=2;strokeColor=#000000;fillColor=none;startArrow=none;startFill=0;startSize=6;endArrow=open;endFill=0;endSize=6;rounded=0;html=1;nl2Br=0;gliffyId=3044;edgeStyle=orthogonalEdgeStyle;exitX=1;exitY=1;exitDx=0;exitDy=0;entryX=1;entryY=0;entryDx=0;entryDy=0;" parent="2" source="12" target="13" edge="1">
          <mxGeometry width="4" height="86" relative="1" as="geometry">
            <Array as="points" />
            <mxPoint x="624.8571428571429" y="580" as="sourcePoint" />
            <mxPoint x="624.8571428571429" y="680" as="targetPoint" />
          </mxGeometry>
        </mxCell>
        <mxCell id="60" value="&lt;div style=&#39;width: 62.375px;height:auto;word-break: break-word;&#39;&gt;&lt;div align=&quot;center&quot;&gt;&lt;span style=&quot;font-size:12px;font-family:Arial; line-height: 0;&quot;&gt;&lt;span style=&quot; line-height: normal;&quot;&gt;applies to&lt;/span&gt;&lt;/span&gt;&lt;/div&gt;&lt;/div&gt;" style="text;html=1;nl2Br=0;points=[];labelBackgroundColor=#FFFFFF;html=1;nl2Br=0;verticalAlign=middle;align=center;spacingLeft=0.0;spacingRight=0;gliffyId=3047;" parent="59" vertex="1">
          <mxGeometry x="0.17999999999999994" relative="1" as="geometry">
            <mxPoint y="-20" as="offset" />
          </mxGeometry>
        </mxCell>
        <mxCell id="61" value="&lt;div style=&#39;width: 27.6875px;height:auto;word-break: break-word;&#39;&gt;&lt;div align=&quot;center&quot;&gt;&lt;span style=&quot;font-size:12px;font-family:Arial; line-height: 0;&quot;&gt;&lt;span style=&quot; line-height: normal;&quot;&gt;0,1&lt;/span&gt;&lt;/span&gt;&lt;/div&gt;&lt;/div&gt;" style="text;html=1;nl2Br=0;points=[];labelBackgroundColor=#FFFFFF;html=1;nl2Br=0;verticalAlign=middle;align=center;spacingLeft=0.0;spacingRight=0;gliffyId=3045;" parent="59" vertex="1">
          <mxGeometry x="-0.72" relative="1" as="geometry">
            <mxPoint x="-16" y="-5" as="offset" />
          </mxGeometry>
        </mxCell>
        <mxCell id="62" value="&lt;div style=&#39;width: 29.0125px;height:auto;word-break: break-word;&#39;&gt;&lt;div align=&quot;center&quot;&gt;&lt;span style=&quot;font-size:12px;font-family:Arial; line-height: 0;&quot;&gt;&lt;span style=&quot; line-height: normal;&quot;&gt;1..*&lt;/span&gt;&lt;/span&gt;&lt;/div&gt;&lt;/div&gt;" style="text;html=1;nl2Br=0;points=[];labelBackgroundColor=#FFFFFF;html=1;nl2Br=0;verticalAlign=middle;align=center;spacingLeft=0.0;spacingRight=0;gliffyId=3046;" parent="59" vertex="1">
          <mxGeometry x="0.6599999999999999" relative="1" as="geometry">
            <mxPoint x="-17" y="-2" as="offset" />
          </mxGeometry>
        </mxCell>
        <mxCell id="63" style="shape=filledEdge;strokeWidth=2;strokeColor=#000000;fillColor=none;startArrow=none;startFill=0;startSize=6;endArrow=open;endFill=0;endSize=6;rounded=0;html=1;nl2Br=0;gliffyId=3049;edgeStyle=orthogonalEdgeStyle;entryX=0;entryY=0;entryDx=0;entryDy=0;exitX=0;exitY=1;exitDx=0;exitDy=0;" parent="2" source="12" target="13" edge="1">
          <mxGeometry width="4" height="86" relative="1" as="geometry">
            <Array as="points" />
            <mxPoint x="505" y="610" as="sourcePoint" />
            <mxPoint x="559" y="680" as="targetPoint" />
          </mxGeometry>
        </mxCell>
        <mxCell id="64" value="&lt;div style=&#39;width: 47.025px;height:auto;word-break: break-word;&#39;&gt;&lt;div align=&quot;center&quot;&gt;&lt;span style=&quot;font-size:12px;font-family:Arial; line-height: 0;&quot;&gt;&lt;span style=&quot; line-height: normal;&quot;&gt;source&lt;/span&gt;&lt;/span&gt;&lt;/div&gt;&lt;/div&gt;" style="text;html=1;nl2Br=0;points=[];labelBackgroundColor=#FFFFFF;html=1;nl2Br=0;verticalAlign=middle;align=center;spacingLeft=0.0;spacingRight=0;gliffyId=3050;" parent="63" vertex="1">
          <mxGeometry x="0.15999999999999992" relative="1" as="geometry">
            <mxPoint as="offset" />
          </mxGeometry>
        </mxCell>
        <mxCell id="65" value="&lt;div style=&#39;width: 17.675px;height:auto;word-break: break-word;&#39;&gt;&lt;div align=&quot;center&quot;&gt;&lt;span style=&quot;font-size:12px;font-family:Arial; line-height: 0;&quot;&gt;&lt;span style=&quot; line-height: normal;&quot;&gt;1&lt;/span&gt;&lt;/span&gt;&lt;/div&gt;&lt;/div&gt;" style="text;html=1;nl2Br=0;points=[];labelBackgroundColor=#FFFFFF;html=1;nl2Br=0;verticalAlign=middle;align=center;spacingLeft=0.0;spacingRight=0;gliffyId=3051;" parent="63" vertex="1">
          <mxGeometry x="-0.74" relative="1" as="geometry">
            <mxPoint x="-12" y="-5" as="offset" />
          </mxGeometry>
        </mxCell>
        <mxCell id="66" value="&lt;div style=&#39;width: 29.0125px;height:auto;word-break: break-word;&#39;&gt;&lt;div align=&quot;center&quot;&gt;&lt;span style=&quot;font-size:12px;font-family:Arial; line-height: 0;&quot;&gt;&lt;span style=&quot; line-height: normal;&quot;&gt;1..*&lt;/span&gt;&lt;/span&gt;&lt;/div&gt;&lt;/div&gt;" style="text;html=1;nl2Br=0;points=[];labelBackgroundColor=#FFFFFF;html=1;nl2Br=0;verticalAlign=middle;align=center;spacingLeft=0.0;spacingRight=0;gliffyId=3052;" parent="63" vertex="1">
          <mxGeometry x="0.6200000000000001" relative="1" as="geometry">
            <mxPoint x="-17" y="-2" as="offset" />
          </mxGeometry>
        </mxCell>
        <mxCell id="67" style="shape=filledEdge;strokeWidth=2;strokeColor=#000000;fillColor=none;startArrow=none;startFill=0;startSize=6;endArrow=open;endFill=0;endSize=6;rounded=0;html=1;nl2Br=0;gliffyId=3061;edgeStyle=orthogonalEdgeStyle;" parent="2" source="17" target="13" edge="1">
          <mxGeometry width="4" height="86" relative="1" as="geometry">
            <Array as="points">
              <mxPoint x="565" y="870" />
              <mxPoint x="565" y="740" />
            </Array>
          </mxGeometry>
        </mxCell>
        <mxCell id="68" value="&lt;div style=&#39;width: 55.025px;height:auto;word-break: break-word;&#39;&gt;&lt;div align=&quot;center&quot;&gt;&lt;span style=&quot;font-size:12px;font-family:Arial; line-height: 0;&quot;&gt;&lt;span style=&quot; line-height: normal;&quot;&gt;refers to&lt;/span&gt;&lt;/span&gt;&lt;/div&gt;&lt;/div&gt;" style="text;html=1;nl2Br=0;points=[];labelBackgroundColor=#FFFFFF;html=1;nl2Br=0;verticalAlign=middle;align=center;spacingLeft=0.0;spacingRight=0;gliffyId=3064;" parent="67" vertex="1">
          <mxGeometry x="-0.06144694664960759" relative="1" as="geometry">
            <mxPoint as="offset" />
          </mxGeometry>
        </mxCell>
        <mxCell id="69" value="&lt;div style=&#39;width: 17.675px;height:auto;word-break: break-word;&#39;&gt;&lt;div align=&quot;center&quot;&gt;&lt;span style=&quot;font-size:12px;font-family:Arial; line-height: 0;&quot;&gt;&lt;span style=&quot; line-height: normal;&quot;&gt;1&lt;/span&gt;&lt;/span&gt;&lt;/div&gt;&lt;/div&gt;" style="text;html=1;nl2Br=0;points=[];labelBackgroundColor=#FFFFFF;html=1;nl2Br=0;verticalAlign=middle;align=center;spacingLeft=0.0;spacingRight=0;gliffyId=3063;" parent="67" vertex="1">
          <mxGeometry x="0.5678102141194055" relative="1" as="geometry">
            <mxPoint x="10" y="-9" as="offset" />
          </mxGeometry>
        </mxCell>
        <mxCell id="70" style="shape=filledEdge;strokeWidth=2;strokeColor=#000000;fillColor=none;startArrow=none;startFill=0;startSize=6;endArrow=open;endFill=0;endSize=6;rounded=0;html=1;nl2Br=0;gliffyId=3098;exitX=0.5;exitY=0.0;exitPerimeter=0;entryX=0.25;entryY=1;entryDx=0;entryDy=0;" parent="2" source="18" target="13" edge="1">
          <mxGeometry width="4" height="86" relative="1" as="geometry">
            <mxPoint x="535" y="740" as="targetPoint" />
            <Array as="points">
              <mxPoint x="405" y="870" />
            </Array>
          </mxGeometry>
        </mxCell>
        <mxCell id="71" value="&lt;div style=&#39;width: 55.025px;height:auto;word-break: break-word;&#39;&gt;&lt;div align=&quot;center&quot;&gt;&lt;span style=&quot;font-size:12px;font-family:Arial; line-height: 0;&quot;&gt;&lt;span style=&quot; line-height: normal;&quot;&gt;refers to&lt;/span&gt;&lt;/span&gt;&lt;/div&gt;&lt;/div&gt;" style="text;html=1;nl2Br=0;points=[];labelBackgroundColor=#FFFFFF;html=1;nl2Br=0;verticalAlign=middle;align=center;spacingLeft=0.0;spacingRight=0;gliffyId=3099;" parent="70" vertex="1">
          <mxGeometry x="-0.06144694664960759" relative="1" as="geometry">
            <mxPoint as="offset" />
          </mxGeometry>
        </mxCell>
        <mxCell id="72" value="&lt;div style=&#39;width: 17.675px;height:auto;word-break: break-word;&#39;&gt;&lt;div align=&quot;center&quot;&gt;&lt;span style=&quot;font-size:12px;font-family:Arial; line-height: 0;&quot;&gt;&lt;span style=&quot; line-height: normal;&quot;&gt;1&lt;/span&gt;&lt;/span&gt;&lt;/div&gt;&lt;/div&gt;" style="text;html=1;nl2Br=0;points=[];labelBackgroundColor=#FFFFFF;html=1;nl2Br=0;verticalAlign=middle;align=center;spacingLeft=0.0;spacingRight=0;gliffyId=3100;" parent="70" vertex="1">
          <mxGeometry x="0.5678102141194055" relative="1" as="geometry">
            <mxPoint x="24" y="-7" as="offset" />
          </mxGeometry>
        </mxCell>
        <mxCell id="73" style="shape=filledEdge;strokeWidth=2;strokeColor=#000000;fillColor=none;startArrow=none;startFill=0;startSize=6;endArrow=open;endFill=0;endSize=6;rounded=0;html=1;nl2Br=0;gliffyId=3101;exitX=0.5666666626930237;exitY=0.0;exitPerimeter=0;entryX=0.0;entryY=0.7071067690849304;entryPerimeter=0;" parent="2" source="19" target="13" edge="1">
          <mxGeometry width="4" height="86" relative="1" as="geometry">
            <Array as="points">
              <mxPoint x="253" y="870" />
              <mxPoint x="505" y="722.4263916015625" />
            </Array>
          </mxGeometry>
        </mxCell>
        <mxCell id="74" value="&lt;div style=&#39;width: 55.025px;height:auto;word-break: break-word;&#39;&gt;&lt;div align=&quot;center&quot;&gt;&lt;span style=&quot;font-size:12px;font-family:Arial; line-height: 0;&quot;&gt;&lt;span style=&quot; line-height: normal;&quot;&gt;refers to&lt;/span&gt;&lt;/span&gt;&lt;/div&gt;&lt;/div&gt;" style="text;html=1;nl2Br=0;points=[];labelBackgroundColor=#FFFFFF;html=1;nl2Br=0;verticalAlign=middle;align=center;spacingLeft=0.0;spacingRight=0;gliffyId=3102;" parent="73" vertex="1">
          <mxGeometry x="-0.06144694664960759" relative="1" as="geometry">
            <mxPoint as="offset" />
          </mxGeometry>
        </mxCell>
        <mxCell id="75" value="&lt;div style=&#39;width: 17.675px;height:auto;word-break: break-word;&#39;&gt;&lt;div align=&quot;center&quot;&gt;&lt;span style=&quot;font-size:12px;font-family:Arial; line-height: 0;&quot;&gt;&lt;span style=&quot; line-height: normal;&quot;&gt;1&lt;/span&gt;&lt;/span&gt;&lt;/div&gt;&lt;/div&gt;" style="text;html=1;nl2Br=0;points=[];labelBackgroundColor=#FFFFFF;html=1;nl2Br=0;verticalAlign=middle;align=center;spacingLeft=0.0;spacingRight=0;gliffyId=3103;" parent="73" vertex="1">
          <mxGeometry x="0.5678102141194055" relative="1" as="geometry">
            <mxPoint x="39" y="-9" as="offset" />
          </mxGeometry>
        </mxCell>
        <mxCell id="76" style="shape=filledEdge;strokeWidth=2;strokeColor=#000000;fillColor=none;startArrow=none;startFill=0;startSize=6;endArrow=open;endFill=0;endSize=6;rounded=0;html=1;nl2Br=0;gliffyId=3106;edgeStyle=orthogonalEdgeStyle;entryX=1;entryY=0.5;entryDx=0;entryDy=0;" parent="2" source="12" target="16" edge="1">
          <mxGeometry width="4" height="86" relative="1" as="geometry">
            <mxPoint x="305" y="550" as="targetPoint" />
            <Array as="points" />
          </mxGeometry>
        </mxCell>
        <mxCell id="77" value="&lt;div style=&#39;width: 51.025px;height:auto;word-break: break-word;&#39;&gt;&lt;div align=&quot;center&quot;&gt;&lt;span style=&quot;font-size:12px;font-family:Arial; line-height: 0;&quot;&gt;&lt;span style=&quot; line-height: normal;&quot;&gt;triggers&lt;/span&gt;&lt;/span&gt;&lt;/div&gt;&lt;/div&gt;" style="text;html=1;nl2Br=0;points=[];labelBackgroundColor=#FFFFFF;html=1;nl2Br=0;verticalAlign=middle;align=center;spacingLeft=0.0;spacingRight=0;gliffyId=3107;" parent="76" vertex="1">
          <mxGeometry x="-0.06144694664960759" relative="1" as="geometry">
            <mxPoint as="offset" />
          </mxGeometry>
        </mxCell>
        <mxCell id="78" style="shape=filledEdge;strokeWidth=2;strokeColor=#000000;fillColor=none;startArrow=none;startFill=0;startSize=6;endArrow=open;endFill=0;endSize=6;rounded=0;html=1;nl2Br=0;gliffyId=3065;exitX=0.5;exitY=0.0;exitPerimeter=0;entryX=0.7071067690849304;entryY=1.0;entryPerimeter=0;" parent="2" source="20" target="13" edge="1">
          <mxGeometry width="4" height="86" relative="1" as="geometry">
            <Array as="points">
              <mxPoint x="725" y="870" />
              <mxPoint x="589.852783203125" y="740" />
            </Array>
          </mxGeometry>
        </mxCell>
        <mxCell id="79" value="&lt;div style=&#39;width: 55.025px;height:auto;word-break: break-word;&#39;&gt;&lt;div align=&quot;center&quot;&gt;&lt;span style=&quot;font-size:12px;font-family:Arial; line-height: 0;&quot;&gt;&lt;span style=&quot; line-height: normal;&quot;&gt;refers to&lt;/span&gt;&lt;/span&gt;&lt;/div&gt;&lt;/div&gt;" style="text;html=1;nl2Br=0;points=[];labelBackgroundColor=#FFFFFF;html=1;nl2Br=0;verticalAlign=middle;align=center;spacingLeft=0.0;spacingRight=0;gliffyId=3066;" parent="78" vertex="1">
          <mxGeometry x="-0.06144694664960759" relative="1" as="geometry">
            <mxPoint as="offset" />
          </mxGeometry>
        </mxCell>
        <mxCell id="80" value="&lt;div style=&#39;width: 17.675px;height:auto;word-break: break-word;&#39;&gt;&lt;div align=&quot;center&quot;&gt;&lt;span style=&quot;font-size:12px;font-family:Arial; line-height: 0;&quot;&gt;&lt;span style=&quot; line-height: normal;&quot;&gt;1&lt;/span&gt;&lt;/span&gt;&lt;/div&gt;&lt;/div&gt;" style="text;html=1;nl2Br=0;points=[];labelBackgroundColor=#FFFFFF;html=1;nl2Br=0;verticalAlign=middle;align=center;spacingLeft=0.0;spacingRight=0;gliffyId=3067;" parent="78" vertex="1">
          <mxGeometry x="0.5784755897256599" relative="1" as="geometry">
            <mxPoint y="-20" as="offset" />
          </mxGeometry>
        </mxCell>
        <mxCell id="81" style="shape=filledEdge;strokeWidth=2;strokeColor=#000000;fillColor=none;startArrow=none;startFill=0;startSize=6;endArrow=open;endFill=0;endSize=6;rounded=0;html=1;nl2Br=0;gliffyId=3068;exitX=0.5;exitY=0.0;exitPerimeter=0;entryX=1;entryY=0.75;entryDx=0;entryDy=0;" parent="2" source="21" target="13" edge="1">
          <mxGeometry width="4" height="86" relative="1" as="geometry">
            <mxPoint x="625" y="720" as="targetPoint" />
            <Array as="points">
              <mxPoint x="885" y="870" />
            </Array>
          </mxGeometry>
        </mxCell>
        <mxCell id="82" value="&lt;div style=&#39;width: 55.025px;height:auto;word-break: break-word;&#39;&gt;&lt;div align=&quot;center&quot;&gt;&lt;span style=&quot;font-size:12px;font-family:Arial; line-height: 0;&quot;&gt;&lt;span style=&quot; line-height: normal;&quot;&gt;refers to&lt;/span&gt;&lt;/span&gt;&lt;/div&gt;&lt;/div&gt;" style="text;html=1;nl2Br=0;points=[];labelBackgroundColor=#FFFFFF;html=1;nl2Br=0;verticalAlign=middle;align=center;spacingLeft=0.0;spacingRight=0;gliffyId=3069;" parent="81" vertex="1">
          <mxGeometry x="-0.06144694664960759" relative="1" as="geometry">
            <mxPoint as="offset" />
          </mxGeometry>
        </mxCell>
        <mxCell id="83" value="&lt;div style=&#39;width: 27.6875px;height:auto;word-break: break-word;&#39;&gt;&lt;div align=&quot;center&quot;&gt;&lt;span style=&quot;font-size:12px;font-family:Arial; line-height: 0;&quot;&gt;&lt;span style=&quot; line-height: normal;&quot;&gt;0,1&lt;/span&gt;&lt;/span&gt;&lt;/div&gt;&lt;/div&gt;" style="text;html=1;nl2Br=0;points=[];labelBackgroundColor=#FFFFFF;html=1;nl2Br=0;verticalAlign=middle;align=center;spacingLeft=0.0;spacingRight=0;gliffyId=3070;" parent="81" vertex="1">
          <mxGeometry x="0.7064600970007135" relative="1" as="geometry">
            <mxPoint x="-9" y="12" as="offset" />
          </mxGeometry>
        </mxCell>
        <mxCell id="84" style="shape=filledEdge;strokeWidth=2;strokeColor=#000000;fillColor=none;startArrow=none;startFill=0;startSize=6;endArrow=diamond;endFill=0;endSize=12;rounded=0;html=1;nl2Br=0;gliffyId=3020;edgeStyle=orthogonalEdgeStyle;" parent="2" source="8" target="9" edge="1">
          <mxGeometry width="100" height="100" relative="1" as="geometry">
            <Array as="points">
              <mxPoint x="265" y="360" />
              <mxPoint x="65" y="360" />
              <mxPoint x="65" y="210" />
              <mxPoint x="105" y="210" />
            </Array>
          </mxGeometry>
        </mxCell>
        <mxCell id="85" value="&lt;div style=&#39;width: 29.0125px;height:auto;word-break: break-word;&#39;&gt;&lt;div align=&quot;center&quot;&gt;&lt;span style=&quot;font-size:12px;font-family:Arial;color:rgb(0, 0, 0); line-height: 0;&quot;&gt;&lt;span style=&quot; line-height: normal;&quot;&gt;0..*&lt;/span&gt;&lt;/span&gt;&lt;/div&gt;&lt;/div&gt;" style="text;html=1;nl2Br=0;points=[];labelBackgroundColor=#FFFFFF;html=1;nl2Br=0;verticalAlign=middle;align=center;spacingLeft=0.0;spacingRight=0;gliffyId=3023;" parent="84" vertex="1">
          <mxGeometry x="-0.8923076923076922" relative="1" as="geometry">
            <mxPoint x="-4" y="10" as="offset" />
          </mxGeometry>
        </mxCell>
        <mxCell id="86" value="&lt;div style=&#39;width: 29.0125px;height:auto;word-break: break-word;&#39;&gt;&lt;div align=&quot;center&quot;&gt;&lt;span style=&quot;font-size:12px;font-family:Arial; line-height: 0;&quot;&gt;&lt;span style=&quot; line-height: normal;&quot;&gt;0..*&lt;/span&gt;&lt;/span&gt;&lt;/div&gt;&lt;/div&gt;" style="text;html=1;nl2Br=0;points=[];labelBackgroundColor=#FFFFFF;html=1;nl2Br=0;verticalAlign=middle;align=center;spacingLeft=0.0;spacingRight=0;gliffyId=3022;" parent="84" vertex="1">
          <mxGeometry x="0.8923076923076922" relative="1" as="geometry">
            <mxPoint y="20" as="offset" />
          </mxGeometry>
        </mxCell>
        <mxCell id="87" value="&lt;div style=&#39;width: 93.0625px;height:auto;word-break: break-word;&#39;&gt;&lt;div align=&quot;center&quot;&gt;&lt;span style=&quot;font-size:12px;font-family:Arial; line-height: 0;&quot;&gt;&lt;span style=&quot; line-height: normal;&quot;&gt;has sub-agents&lt;/span&gt;&lt;/span&gt;&lt;/div&gt;&lt;/div&gt;" style="text;html=1;nl2Br=0;points=[];labelBackgroundColor=#FFFFFF;html=1;nl2Br=0;verticalAlign=middle;align=center;spacingLeft=0.0;spacingRight=0;gliffyId=3021;" parent="84" vertex="1">
          <mxGeometry x="-0.41538461538461535" relative="1" as="geometry">
            <mxPoint as="offset" />
          </mxGeometry>
        </mxCell>
        <mxCell id="88" style="shape=filledEdge;strokeWidth=2;strokeColor=#000000;fillColor=none;startArrow=none;startFill=0;startSize=6;endArrow=diamond;endFill=1;endSize=12;rounded=0;html=1;nl2Br=0;gliffyId=3031;edgeStyle=orthogonalEdgeStyle;" parent="2" source="14" target="13" edge="1">
          <mxGeometry width="100" height="100" relative="1" as="geometry">
            <Array as="points">
              <mxPoint x="905" y="710" />
              <mxPoint x="811.6666870117188" y="710" />
              <mxPoint x="718.3333129882812" y="710" />
              <mxPoint x="625" y="710" />
            </Array>
          </mxGeometry>
        </mxCell>
        <mxCell id="89" value="&lt;div style=&#39;width: 27.6875px;height:auto;word-break: break-word;&#39;&gt;&lt;div align=&quot;center&quot;&gt;&lt;span style=&quot;font-size:12px;font-family:Arial; line-height: 0;&quot;&gt;&lt;span style=&quot; line-height: normal;&quot;&gt;0,1&lt;/span&gt;&lt;/span&gt;&lt;/div&gt;&lt;/div&gt;" style="text;html=1;nl2Br=0;points=[];labelBackgroundColor=#FFFFFF;html=1;nl2Br=0;verticalAlign=middle;align=center;spacingLeft=0.0;spacingRight=0;gliffyId=3036;" parent="88" vertex="1">
          <mxGeometry x="-0.8357142857142857" relative="1" as="geometry">
            <mxPoint y="20" as="offset" />
          </mxGeometry>
        </mxCell>
        <mxCell id="90" value="&lt;div style=&#39;width: 30.35px;height:auto;word-break: break-word;&#39;&gt;&lt;div align=&quot;center&quot;&gt;&lt;span style=&quot;font-size:12px;font-family:Arial; line-height: 0;&quot;&gt;&lt;span style=&quot; line-height: normal;&quot;&gt;has&lt;/span&gt;&lt;/span&gt;&lt;/div&gt;&lt;/div&gt;" style="text;html=1;nl2Br=0;points=[];labelBackgroundColor=#FFFFFF;html=1;nl2Br=0;verticalAlign=middle;align=center;spacingLeft=0.0;spacingRight=0;gliffyId=3035;" parent="88" vertex="1">
          <mxGeometry x="0.1499999999999999" relative="1" as="geometry">
            <mxPoint as="offset" />
          </mxGeometry>
        </mxCell>
        <mxCell id="91" style="shape=note;size=10;shadow=0;strokeWidth=1;fillColor=#FFFFFF;strokeColor=#000000;opacity=100.0;gliffyId=3085;" parent="2" vertex="1">
          <mxGeometry x="120" y="1000" width="968" height="46" as="geometry" />
        </mxCell>
        <mxCell id="92" value="&lt;div style=&#39;width: 867.0px;height:auto;word-break: break-word;&#39;&gt;&lt;div align=&quot;center&quot;&gt;&lt;span style=&quot;font-size:14px;font-family:Arial; line-height: normal;&quot;&gt;Note: All GSIM classes except &lt;span style=&quot;font-style:italic; line-height: normal;&quot;&gt;Administrative Details, Agent In Role, Change Event, Datum, Process Input&lt;/span&gt; and &lt;span style=&quot;font-style:italic; line-height: normal;&quot;&gt;Process Output&lt;/span&gt; are a sub-type of &lt;span style=&quot;font-style:italic; line-height: normal;&quot;&gt;Identifiable Artefact&lt;/span&gt;; these relationships are not shown in the above diagram.&lt;span style=&quot;text-decoration:none; line-height: normal;&quot;&gt;&lt;br /&gt;&lt;/span&gt;&lt;/span&gt;&lt;/div&gt;&lt;/div&gt;" style="text;html=1;nl2Br=0;html=1;nl2Br=0;verticalAlign=middle;align=center;spacingLeft=0.0;spacingRight=0;whiteSpace=wrap;gliffyId=3087;" parent="2" vertex="1">
          <mxGeometry x="174" y="1006.5" width="870" height="33" as="geometry" />
        </mxCell>
      </root>
    </mxGraphModel>
  </diagram>
</mxfile>
